<svg width="22" height="24" viewBox="0 0 22 24" fill="none" xmlns="http://www.w3.org/2000/svg">
<path d="M1.95703 10.5C1.1286 10.5 0.457031 11.1716 0.457031 12C0.457031 12.8284 1.1286 13.5 1.95703 13.5L1.95703 10.5ZM21.0177 13.0607C21.6035 12.4749 21.6035 11.5251 21.0177 10.9393L11.4717 1.3934C10.886 0.807611 9.93621 0.807611 9.35043 1.3934C8.76464 1.97918 8.76464 2.92893 9.35043 3.51472L17.8357 12L9.35043 20.4853C8.76464 21.0711 8.76464 22.0208 9.35043 22.6066C9.93622 23.1924 10.886 23.1924 11.4718 22.6066L21.0177 13.0607ZM1.95703 13.5L19.957 13.5L19.957 10.5L1.95703 10.5L1.95703 13.5Z" fill="#C1FD35"/>
</svg>
