<svg width="66" height="68" viewBox="0 0 66 68" fill="none" xmlns="http://www.w3.org/2000/svg">
<g clip-path="url(#clip0_1623_2560)">
<path d="M35.0803 4.27544C31.0167 4.26779 26.9917 5.08721 23.2364 6.68665C19.481 8.28609 16.0693 10.634 13.1971 13.5957C1.13152 26.0269 1.13152 46.2485 13.2013 58.6797C25.2669 71.1067 44.8936 71.1067 56.9593 58.6797C69.0208 46.2485 69.0208 26.0269 56.9593 13.5957C54.0887 10.6341 50.6785 8.28612 46.9245 6.68665C43.1705 5.08718 39.1467 4.26775 35.0844 4.27544H35.0803ZM35.0803 8.49994C41.936 8.49994 48.7918 11.1987 54.0388 16.6004C56.5325 19.1641 58.5109 22.2093 59.8608 25.5618C61.2107 28.9143 61.9056 32.5082 61.9056 36.1377C61.9056 39.7672 61.2107 43.3611 59.8608 46.7136C58.5109 50.0661 56.5325 53.1113 54.0388 55.675C51.5505 58.2442 48.5949 60.2826 45.341 61.6734C42.0871 63.0642 38.5989 63.7801 35.0761 63.7801C31.5534 63.7801 28.0652 63.0642 24.8113 61.6734C21.5574 60.2826 18.6018 58.2442 16.1135 55.675C13.6198 53.1113 11.6414 50.0661 10.2915 46.7136C8.94156 43.3611 8.24672 39.7672 8.24672 36.1377C8.24672 32.5082 8.94156 28.9143 10.2915 25.5618C11.6414 22.2093 13.6198 19.1641 16.1135 16.6004C18.601 14.0292 21.5572 11.9899 24.8122 10.5998C28.0671 9.2096 31.5567 8.49598 35.0803 8.49994ZM47.2903 27.6334C46.8996 27.6713 46.5276 27.8231 46.2178 28.0712L31.145 39.7162L24.1614 32.5252C23.9711 32.3222 23.7435 32.1604 23.4919 32.049C23.2403 31.9376 22.9696 31.879 22.6958 31.8765C22.4219 31.8741 22.1503 31.9279 21.8969 32.0347C21.6434 32.1415 21.4131 32.2993 21.2195 32.4989C21.0258 32.6984 20.8727 32.9356 20.7689 33.1968C20.6652 33.4579 20.6131 33.7378 20.6154 34.0199C20.6178 34.3021 20.6747 34.5809 20.7828 34.8402C20.8909 35.0994 21.048 35.3339 21.245 35.5299L29.495 44.0299C29.8457 44.3914 30.311 44.6105 30.8057 44.6472C31.3004 44.6839 31.7914 44.5357 32.1886 44.2297L48.6886 31.4797C49.0383 31.2171 49.2989 30.848 49.4337 30.4244C49.5684 30.0008 49.5705 29.5443 49.4396 29.1194C49.3087 28.6946 49.0514 28.3229 48.7042 28.057C48.357 27.7911 47.9374 27.6444 47.5048 27.6377C47.4347 27.634 47.3645 27.634 47.2944 27.6377L47.2903 27.6334Z" fill="black"/>
</g>
<defs>
<clipPath id="clip0_1623_2560">
<rect width="66" height="68" fill="white"/>
</clipPath>
</defs>
</svg>
